<svg width="34" height="36" viewBox="0 0 34 36" fill="none" xmlns="http://www.w3.org/2000/svg">
<path d="M29 4C26.791 4 25 5.791 25 8V17.125C25 18.211 24.113 19.085 23 19.573V6C23 2.687 20.313 0 17 0C13.687 0 11 2.687 11 6V23.629C9.878 23.154 9 22.258 9 21.125V16C9 13.791 7.209 12 5 12C2.791 12 1 13.791 1 16V23C1 25.209 2.75 26.875 4.375 27.812C5.619 28.53 9.106 29.412 11 29.463V33C11 36.313 23 36.313 23 33V25.451C24.981 25.332 28.291 24.498 29.479 23.812C31.104 22.875 33 21.209 33 19V8C33 5.791 31.209 4 29 4Z" fill="#7289DA"/>
<path d="M11 7C11.5523 7 12 6.55228 12 6C12 5.44772 11.5523 5 11 5C10.4477 5 10 5.44772 10 6C10 6.55228 10.4477 7 11 7Z" fill="#103B7C"/>
<path d="M22 4C22.5523 4 23 3.55228 23 3C23 2.44772 22.5523 2 22 2C21.4477 2 21 2.44772 21 3C21 3.55228 21.4477 4 22 4Z" fill="#103B7C"/>
<path d="M20 10C20.5523 10 21 9.55228 21 9C21 8.44772 20.5523 8 20 8C19.4477 8 19 8.44772 19 9C19 9.55228 19.4477 10 20 10Z" fill="#103B7C"/>
<path d="M13 17C13.5523 17 14 16.5523 14 16C14 15.4477 13.5523 15 13 15C12.4477 15 12 15.4477 12 16C12 16.5523 12.4477 17 13 17Z" fill="#103B7C"/>
<path d="M19 21C19.5523 21 20 20.5523 20 20C20 19.4477 19.5523 19 19 19C18.4477 19 18 19.4477 18 20C18 20.5523 18.4477 21 19 21Z" fill="#103B7C"/>
<path d="M12 27C12.5523 27 13 26.5523 13 26C13 25.4477 12.5523 25 12 25C11.4477 25 11 25.4477 11 26C11 26.5523 11.4477 27 12 27Z" fill="#103B7C"/>
<path d="M4 28C4.55228 28 5 27.5523 5 27C5 26.4477 4.55228 26 4 26C3.44772 26 3 26.4477 3 27C3 27.5523 3.44772 28 4 28Z" fill="#103B7C"/>
<path d="M8 21C8.55228 21 9 20.5523 9 20C9 19.4477 8.55228 19 8 19C7.44772 19 7 19.4477 7 20C7 20.5523 7.44772 21 8 21Z" fill="#103B7C"/>
<path d="M1 19C1.55228 19 2 18.5523 2 18C2 17.4477 1.55228 17 1 17C0.447715 17 0 17.4477 0 18C0 18.5523 0.447715 19 1 19Z" fill="#103B7C"/>
<path d="M33 9C33.5523 9 34 8.55228 34 8C34 7.44772 33.5523 7 33 7C32.4477 7 32 7.44772 32 8C32 8.55228 32.4477 9 33 9Z" fill="#103B7C"/>
<path d="M27 12C27.5523 12 28 11.5523 28 11C28 10.4477 27.5523 10 27 10C26.4477 10 26 10.4477 26 11C26 11.5523 26.4477 12 27 12Z" fill="#103B7C"/>
<path d="M31 17C31.5523 17 32 16.5523 32 16C32 15.4477 31.5523 15 31 15C30.4477 15 30 15.4477 30 16C30 16.5523 30.4477 17 31 17Z" fill="#103B7C"/>
<path d="M28 25C28.5523 25 29 24.5523 29 24C29 23.4477 28.5523 23 28 23C27.4477 23 27 23.4477 27 24C27 24.5523 27.4477 25 28 25Z" fill="#103B7C"/>
<path d="M21 31C21.5523 31 22 30.5523 22 30C22 29.4477 21.5523 29 21 29C20.4477 29 20 29.4477 20 30C20 30.5523 20.4477 31 21 31Z" fill="#103B7C"/>
</svg>
